# xmcd
#
# Track frame offsets:
# 150
# 19758
# 37466
# 53822
# 83461
# 100048
# 119911
# 138587
# 156545
# 177624
#
# Disc length: 2633 seconds
#
#
# Revision: 0
# Processed by: cddbd v1.5.2PL0 Copyright (c) Steve Scherf et al.
# Submitted via: FreeRIP 2.945 
#
DISCID=900a470a
DTITLE=Diversi - Parada Manelelor vol.1
DYEAR=2007
DGENRE=Folklore
TTITLE0=Nicolae Guta - Cu tine
TTITLE1=Florin Salam si Printesa de aur - Unii se lauda
TTITLE2=Adrian Minune - Te iubesc la fel de mult
TTITLE3=Adi de la Valcea - Dragoste ce ai cu mine
TTITLE4=Sorina si Don Genove - Prin cate am trecut in viata
TTITLE5=Catalin Arabu' si Susanu - Ospatare dau bacsis
TTITLE6=Alexx - Ce fac eu la anii mei
TTITLE7=Liviu Pustiu - Arde telefonul
TTITLE8=Denisa - In mintea si-n inima mea
TTITLE9=Florin Peste si Ioana - Da, da, da te iubesc!!!!!!
EXTD=Parada Manelelor (pentru TOnTI) - by ...:::TINEL:::...
EXTT0=
EXTT1=
EXTT2=
EXTT3=
EXTT4=
EXTT5=
EXTT6=
EXTT7=
EXTT8=
EXTT9=
PLAYORDER=
